<?xml version="1.0" encoding="utf-8"?>
<!-- Generator: Adobe Illustrator 16.0.0, SVG Export Plug-In . SVG Version: 6.00 Build 0)  -->
<!DOCTYPE svg PUBLIC "-//W3C//DTD SVG 1.1 Tiny//EN" "http://www.w3.org/Graphics/SVG/1.1/DTD/svg11-tiny.dtd">
<svg version="1.1" baseProfile="tiny" id="Layer_1" xmlns="http://www.w3.org/2000/svg" xmlns:xlink="http://www.w3.org/1999/xlink"
	 x="0px" y="0px" width="24px" height="24px" viewBox="0 0 24 24" xml:space="preserve">
<path d="M22.213,5.71c-2.087-2.809-4.058-2.16-5.962-1.532c-0.842,0.277-1.713,0.563-2.62,0.563c-0.579,0-1.14-0.123-1.672-0.276
	C12,4.19,12.024,3.907,12.024,3.612c0-1.659-1.35-3.01-3.009-3.01c-1.066,0-2.013,0.547-2.549,1.405
	C5.923,1.149,4.971,0.603,3.903,0.603c-1.674,0-3.037,1.362-3.037,3.037c0,2.651,1.88,4.507,3.436,5.593
	c0.125,1.115,0.51,2.2,0.86,3.162c0.325,0.892,0.632,1.734,0.632,2.372c0,3.205,0.666,8.631,3.16,8.631
	c1.692,0,2.2-1.915,2.692-3.767c0.528-1.99,0.957-3.294,2.051-3.294c1.02,0,1.351,1.135,1.774,3.004
	c0.427,1.884,0.911,4.02,2.996,4.02c2.896,0,3.145-6.616,3.159-8.394c0-0.002,0.001-0.003,0.001-0.005s-0.001-0.003-0.001-0.005
	c0-0.065,0.001-0.139,0.001-0.19c0-0.616,0.298-1.455,0.613-2.343C22.956,10.41,23.845,7.905,22.213,5.71z M1.667,3.64
	c0-1.233,1.003-2.236,2.237-2.236c1.045,0,1.94,0.711,2.177,1.729c0.042,0.181,0.204,0.31,0.39,0.31h0.001
	C6.658,3.441,6.819,3.312,6.86,3.129c0.224-1,1.13-1.726,2.155-1.726c1.218,0,2.209,0.991,2.209,2.209
	c0,3.563-3.917,5.572-4.747,5.958C5.642,9.179,1.667,7.134,1.667,3.64z M21.487,12.156c-0.31,0.871-0.591,1.693-0.64,2.405h-0.876
	l-0.688-1.24c-0.108-0.194-0.353-0.262-0.544-0.155c-0.193,0.107-0.263,0.351-0.155,0.544l0.473,0.852h-0.123
	c-0.015,0-0.026,0.007-0.04,0.008c-0.024,0.003-0.048,0.008-0.071,0.015c-0.028,0.009-0.054,0.019-0.079,0.033
	c-0.011,0.005-0.022,0.006-0.032,0.013l-1.489,1c-0.184,0.123-0.232,0.372-0.109,0.555c0.077,0.115,0.203,0.178,0.332,0.178
	c0.077,0,0.154-0.022,0.223-0.068l1.388-0.932h1.767c-0.074,3.573-0.817,7.197-2.354,7.197c-1.346,0-1.751-1.344-2.216-3.396
	c-0.404-1.783-0.822-3.628-2.554-3.628c-1.792,0-2.34,2.066-2.825,3.89c-0.508,1.916-0.917,3.171-1.918,3.171
	c-1.477,0-2.36-3.981-2.36-7.83c0-0.779-0.33-1.686-0.68-2.646c-0.263-0.723-0.551-1.517-0.718-2.318
	c0.613,0.354,1.066,0.55,1.128,0.575c0.049,0.021,0.101,0.031,0.153,0.031c0.052,0,0.103-0.011,0.152-0.03
	c0.191-0.078,4.133-1.735,5.153-5.133c0.578,0.165,1.192,0.296,1.849,0.296c1.035,0,1.968-0.308,2.87-0.604
	c1.49-0.491,2.728-0.896,4.058,0.168l-2.394,2.394h-1.605c-0.221,0-0.4,0.18-0.4,0.4s0.18,0.4,0.4,0.4h1.2l-0.69,1.9
	c-0.075,0.207,0.031,0.437,0.239,0.512c0.045,0.018,0.092,0.024,0.137,0.024c0.163,0,0.316-0.101,0.376-0.263l0.855-2.354
	l0.66-0.661v2.336c0,0.221,0.18,0.399,0.4,0.399s0.4-0.179,0.4-0.399V6.658l0.999-1c0.144,0.159,0.288,0.33,0.435,0.528
	C22.948,8.04,22.172,10.227,21.487,12.156z"/>
</svg>
